<svg width="24" height="24" viewBox="0 0 24 24" fill="none" xmlns="http://www.w3.org/2000/svg">
<path d="M14.5 9C14.6326 9 14.7598 9.05268 14.8536 9.14645C14.9473 9.24021 15 9.36739 15 9.5V12.5C15 12.6326 14.9473 12.7598 14.8536 12.8536C14.7598 12.9473 14.6326 13 14.5 13C14.3674 13 14.2402 12.9473 14.1464 12.8536C14.0527 12.7598 14 12.6326 14 12.5V10.707L11.852 12.854C11.945 13.05 12 13.269 12 13.5V16.5C12 16.8978 11.842 17.2794 11.5607 17.5607C11.2794 17.842 10.8978 18 10.5 18H7.5C7.10218 18 6.72064 17.842 6.43934 17.5607C6.15804 17.2794 6 16.8978 6 16.5V13.5C6 13.1022 6.15804 12.7206 6.43934 12.4393C6.72064 12.158 7.10218 12 7.5 12H10.5C10.731 12 10.949 12.054 11.145 12.148L13.293 10H11.5C11.3674 10 11.2402 9.94732 11.1464 9.85355C11.0527 9.75979 11 9.63261 11 9.5C11 9.36739 11.0527 9.24021 11.1464 9.14645C11.2402 9.05268 11.3674 9 11.5 9H14.5ZM16 6C16.5304 6 17.0391 6.21071 17.4142 6.58579C17.7893 6.96086 18 7.46957 18 8V16C18 16.5304 17.7893 17.0391 17.4142 17.4142C17.0391 17.7893 16.5304 18 16 18H14C13.8674 18 13.7402 17.9473 13.6464 17.8536C13.5527 17.7598 13.5 17.6326 13.5 17.5C13.5 17.3674 13.5527 17.2402 13.6464 17.1464C13.7402 17.0527 13.8674 17 14 17H16C16.2652 17 16.5196 16.8946 16.7071 16.7071C16.8946 16.5196 17 16.2652 17 16V8C17 7.73478 16.8946 7.48043 16.7071 7.29289C16.5196 7.10536 16.2652 7 16 7H8C7.73478 7 7.48043 7.10536 7.29289 7.29289C7.10536 7.48043 7 7.73478 7 8V10C7 10.1326 6.94732 10.2598 6.85355 10.3536C6.75979 10.4473 6.63261 10.5 6.5 10.5C6.36739 10.5 6.24021 10.4473 6.14645 10.3536C6.05268 10.2598 6 10.1326 6 10V8C6 7.46957 6.21071 6.96086 6.58579 6.58579C6.96086 6.21071 7.46957 6 8 6H16ZM7.5 13C7.36739 13 7.24021 13.0527 7.14645 13.1464C7.05268 13.2402 7 13.3674 7 13.5V16.5C7 16.6326 7.05268 16.7598 7.14645 16.8536C7.24021 16.9473 7.36739 17 7.5 17H10.5C10.6326 17 10.7598 16.9473 10.8536 16.8536C10.9473 16.7598 11 16.6326 11 16.5V13.5C11 13.3674 10.9473 13.2402 10.8536 13.1464C10.7598 13.0527 10.6326 13 10.5 13H7.5Z" fill="currentColor" fill-opacity="0.5"/>
</svg>
